<svg version="1.1" viewBox="0.0 0.0 1200.0 1200.0" fill="none" stroke="none" stroke-linecap="square" stroke-miterlimit="10" xmlns:xlink="http://www.w3.org/1999/xlink" xmlns="http://www.w3.org/2000/svg"><clipPath id="g20167b7e9a5_0_0.0"><path d="m0 0l1200.0 0l0 1200.0l-1200.0 0l0 -1200.0z" clip-rule="nonzero"/></clipPath><g clip-path="url(#g20167b7e9a5_0_0.0)"><path fill="#000000" fill-opacity="0.0" d="m0 0l1200.0 0l0 1200.0l-1200.0 0z" fill-rule="evenodd"/><path fill="#abb0a0" d="m345.89798 -1.6299213E-4l206.33029 600.0l301.19727 0l-206.33026 -600.0z" fill-rule="evenodd"/><path fill="#abb0a0" d="m692.4811 0.0011493438l206.33026 600.0l301.19733 0l-206.33032 -600.0z" fill-rule="evenodd"/><path fill="#6d7066" d="m853.42993 600.0026l-206.33026 600.00006l-301.1973 0l206.33023 -600.00006z" fill-rule="evenodd"/><path fill="#6d7066" d="m1200.0079 600.0026l-206.33032 600.00006l-301.19727 0l206.33026 -600.00006z" fill-rule="evenodd"/><path fill="#abb0a0" d="m0.008807612 -1.4883515l206.33026 600.0l301.19733 0l-206.33026 -600.0z" fill-rule="evenodd"/><path fill="#6d7066" d="m507.54074 598.51447l-206.33023 599.99994l-301.19733 0l206.33025 -599.99994z" fill-rule="evenodd"/></g></svg>